<?xml version="1.0" encoding="UTF-8" standalone="no"?>
<!-- Created with Inkscape (http://www.inkscape.org/) -->

<svg
   xmlns:dc="http://purl.org/dc/elements/1.1/"
   xmlns:cc="http://creativecommons.org/ns#"
   xmlns:rdf="http://www.w3.org/1999/02/22-rdf-syntax-ns#"
   xmlns:svg="http://www.w3.org/2000/svg"
   xmlns="http://www.w3.org/2000/svg"
   xmlns:sodipodi="http://sodipodi.sourceforge.net/DTD/sodipodi-0.dtd"
   xmlns:inkscape="http://www.inkscape.org/namespaces/inkscape"
   width="213.96523mm"
   height="245.92261mm"
   viewBox="0 0 758.1445 871.37931"
   id="svg26360"
   version="1.1"
   inkscape:version="0.91 r13725"
   sodipodi:docname="fairy.svg">
  <defs
     id="defs26362" />
  <sodipodi:namedview
     id="base"
     pagecolor="#ffffff"
     bordercolor="#666666"
     borderopacity="1.0"
     inkscape:pageopacity="0.0"
     inkscape:pageshadow="2"
     inkscape:zoom="0.35"
     inkscape:cx="-3.0706127"
     inkscape:cy="586.25642"
     inkscape:document-units="px"
     inkscape:current-layer="layer1"
     showgrid="false"
     fit-margin-top="0"
     fit-margin-left="0"
     fit-margin-right="0"
     fit-margin-bottom="0"
     inkscape:window-width="1920"
     inkscape:window-height="1056"
     inkscape:window-x="0"
     inkscape:window-y="24"
     inkscape:window-maximized="1" />
  <metadata
     id="metadata26365">
    <rdf:RDF>
      <cc:Work
         rdf:about="">
        <dc:format>image/svg+xml</dc:format>
        <dc:type
           rdf:resource="http://purl.org/dc/dcmitype/StillImage" />
        <dc:title></dc:title>
      </cc:Work>
    </rdf:RDF>
  </metadata>
  <g
     inkscape:label="Layer 1"
     inkscape:groupmode="layer"
     id="layer1"
     transform="translate(109.07224,-247.23928)">
    <path
       style="fill:#de8787;fill-opacity:1"
       d="M 278.51193,443.10617 C 255.09401,407.09153 231.8164,329.60526 263.85426,301.63781 c 29.84079,-26.04952 62.82106,-30.96064 95.76379,-14.26029 19.75603,10.01529 32.38978,11.82144 50.69098,7.24693 13.21266,-3.3026 13.70702,-3.61821 27.72834,-17.69841 17.51357,-17.58715 26.96243,-23.86247 41.63571,-27.65169 13.05887,-3.37231 21.14727,-2.64696 32.08128,2.87727 4.27744,2.16099 8.62596,3.7099 9.66329,3.44202 1.03732,-0.26788 2.46878,0.0716 3.18069,0.75453 1.83571,1.76047 -4.07086,2.51588 -9.34099,1.19462 -6.39316,-1.60282 -28.16871,4.49678 -37.26153,10.43745 -4.27843,2.79516 -12.66734,9.32666 -18.64238,14.51451 -17.14999,14.89061 -30.81581,23.94644 -42.99114,28.48892 -10.02656,3.74075 -10.77846,4.33054 -6.84418,5.367 11.97393,3.15443 27.40994,1.31291 71.57263,-8.53872 60.88903,-13.58291 78.54543,-13.93361 101.33224,-2.01277 18.15854,9.4995 22.63867,18.69644 30.27444,62.14516 4.11087,23.39152 6.10811,25.8939 18.17931,22.77663 5.53207,-1.4286 8.13362,-3.5351 12.45846,-10.08811 6.15886,-9.33173 7.17956,-8.91947 3.92077,1.58359 -2.19094,7.06104 -11.72483,16.67453 -18.30781,18.46048 -6.20427,1.68317 -14.80136,-1.7442 -18.70815,-7.45844 -2.13109,-3.11704 -4.31444,-5.55215 -4.85187,-5.41134 -1.38671,0.36361 -7.56765,18.57028 -9.54262,28.10968 -3.69704,17.8583 2.50119,33.8223 13.91456,35.83804 6.23436,1.10111 6.49473,3.24384 0.44117,3.63079 -7.38082,0.47175 -18.53605,-7.09817 -31.18277,-21.16071 -29.27488,-32.55209 -65.38096,-38.82069 -106.7215,-18.52844 -15.35839,7.53875 -20.4093,11.60255 -11.74868,9.45254 9.24219,-2.29435 23.46217,0.1629 45.92389,7.93585 24.21805,8.38069 32.27575,9.86343 41.66138,7.66587 l 6.776,-1.58645 -4.90337,3.08371 c -6.32149,3.97553 -16.61775,5.26178 -37.25252,4.65383 -17.11975,-0.50448 -40.00644,3.80861 -41.2358,7.77101 -0.35253,1.13599 0.61662,1.74069 2.1554,1.34332 1.53779,-0.39712 6.93399,0.0594 11.99107,1.01466 9.52077,1.7984 17.99491,8.14407 19.71719,14.7649 1.08669,4.20815 -2.92369,14.78573 -5.90778,15.55635 -1.06041,0.27383 -0.97997,-1.31045 0.1787,-3.52063 3.48897,-6.65552 0.096,-15.12417 -7.77746,-19.41163 -17.32892,-9.43621 -43.73406,-3.22972 -81.46276,19.14767 -12.76743,7.57251 -19.70424,17.20416 -31.69896,17.03757 -16.47091,-0.22878 -45.61615,-5.41229 -60.85869,-12.69319 -20.39094,-9.74016 -25.94192,-24.19665 -39.34266,-44.80572 z M 600.55918,348.202 c -4.11007,-17.18628 -21.38319,-32.28738 -42.18571,-36.88138 -14.28841,-3.15541 -29.29423,-0.18632 -46.43812,9.18846 -14.92101,8.15928 -21.41212,14.00895 -8.99966,8.11038 11.85982,-5.63596 36.98508,-11.5497 47.4685,-11.17266 19.98247,0.71884 38.79417,16.00916 47.90336,38.93638 3.2916,8.28487 4.13579,9.38793 4.24936,5.55241 0.0781,-2.63256 -0.821,-8.81265 -1.99773,-13.73359 z M 435.04726,291.37329 c 7.11224,-4.83029 20.1868,-13.79417 29.0546,-19.91972 15.10458,-10.43372 17.1439,-11.34783 32.27613,-14.46754 14.60336,-3.01067 15.75312,-3.49895 11.98498,-5.09012 -20.06926,-8.47472 -42.32295,0.49956 -65.62318,26.46404 -11.13039,12.40315 -16.04411,16.38756 -26.42007,21.4234 l -6.75323,3.27763 6.27456,-1.45261 c 3.45111,-0.79904 12.09382,-5.40469 19.20621,-10.23502 z m -76.50379,-2.93958 c -9.98535,-6.57808 -39.20418,-9.36227 -53.82514,-5.12888 -4.52561,1.31042 -2.67003,1.58185 6.91076,1.01088 7.63532,-0.45498 20.24797,0.82542 30.24184,3.07013 19.64879,4.4133 22.00628,4.56146 16.67254,1.04787 z m 259.77091,163.89157 c 0.33666,-0.38262 1.91144,-2.28549 3.49957,-4.22861 2.67095,-3.26798 2.7646,-3.25184 1.248,0.21533 -0.90187,2.06159 -2.47665,3.96446 -3.49957,4.22862 -1.02291,0.26415 -1.58447,0.16724 -1.248,-0.21534 z"
       id="path24709"
       inkscape:connector-curvature="0"
       sodipodi:nodetypes="sssssscscscsssssssscssccssssssccssssscssssssscssssscccsssssccccscssscscsc" />
    <path
       style="fill:#000000;stroke:#000000;stroke-width:0.13453011"
       d="m 164.3918,827.27741 c 2.71497,2.80066 7.52014,20.2127 30.83942,43.58777 24.60303,24.66214 65.70842,34.23436 65.70842,34.23436 0.36334,27.03322 20.21064,13.13978 26.44749,8.6059 7.51847,-5.46554 1.7337,-23.81293 -0.82915,-27.87306 0,0 -18.97724,-36.49692 -29.83104,-53.94403 -17.86076,-28.71063 -40.15254,-58.30969 -40.15254,-58.30969 z"
       id="path25899"
       inkscape:connector-curvature="0"
       sodipodi:nodetypes="cscscscc"
       inkscape:transform-center-x="-19.381989"
       inkscape:transform-center-y="48.063234" />
    <g
       id="g26005"
       inkscape:transform-center-x="65.152764"
       inkscape:transform-center-y="182.37558"
       transform="matrix(0.66235287,-0.37620177,0.37620177,0.66235287,1165.7849,278.01663)"
       style="fill:#000000">
      <path
         style="fill:#000000;stroke:#000000;stroke-width:0.17661029"
         d="m -1442.6994,116.05935 c -41.5776,-33.068464 -55.6743,-42.475343 -109.3674,-39.817649 -43.1283,0.854606 -115.2434,28.077849 -161.6029,33.387119 -7.9884,-1.03731 -35.6632,27.66783 -21.216,26.85212 2.4871,0.001 4.975,0.0102 7.4603,-0.0607 13.3744,-0.40196 26.7579,-0.5097 40.1299,-0.84977 18.1725,-0.37289 39.2632,-1.05398 59.0477,0.85945 6.9381,0.45114 13.8788,0.88132 20.8132,1.40595 12.7436,1.01313 25.4667,2.30773 38.1783,3.67905 12.3105,1.24958 24.5769,2.87549 36.897,4.02959 6.5521,0.61548 13.1179,1.05891 19.6532,1.84879 7.0153,0.87074 13.9884,2.10687 20.8328,3.8896 6.2381,1.61741 12.4388,3.36914 18.6905,4.92221 6.5128,1.61597 30.5511,3.56907 45.4266,0.72906 4.7008,-0.89749 7.0986,-4.17691 13.2608,-5.50289 z"
         id="path25897"
         inkscape:connector-curvature="0"
         sodipodi:nodetypes="cccccccccccccacc" />
      <path
         sodipodi:nodetypes="cscscascccc"
         inkscape:connector-curvature="0"
         id="path25901"
         d="m -1708.8637,110.06147 c -7.9647,-1.206 -12.8361,-5.14581 -20.1647,-11.92261 -6.068,-5.611132 -10.1382,-8.649486 -14.6439,-9.122134 -18.0912,3.530198 -23.5724,19.171964 -38.8749,28.145324 -12.8639,7.54333 -32.1422,8.50429 -44.2236,15.67381 -7.3508,4.36858 -7.4731,4.60644 -10.3539,7.83686 -2.1399,2.3994 -7.1876,5.74397 -4.9062,8.30373 3.8178,4.28355 33.7213,-0.87352 79.7618,-9.99297 5.9023,-1.16921 17.1652,-2.01445 31.6265,-2.52449 2.4863,0.0541 4.9735,0.11537 7.4598,0.0971 13.3798,-0.119 60.7804,-30.82244 14.3191,-26.49462 z"
         style="fill:#000000;stroke:#000000;stroke-width:0.17661029" />
    </g>
    <path
       inkscape:connector-curvature="0"
       style="fill:#000000;fill-opacity:1"
       d="m 234.82594,504.59836 c -0.52933,0.006 -1.03208,0.19916 -1.50115,0.59511 -15.13894,5.05854 -29.66178,12.34056 -43.89349,19.75301 -11.38283,7.33826 -25.09488,8.38351 -37.16129,13.93736 -12.64875,2.69841 -24.3793,10.81825 -37.25954,10.4798 -22.393695,3.58431 -45.044245,6.23445 -67.130806,11.73547 -10.406357,2.93021 -21.333816,3.20025 -31.891682,4.8501 -1.153722,-0.0103 -2.285888,0.0906 -3.380196,0.35111 -23.704866,5.64326 -31.810404,5.2678 -52.256192,-2.4191 -25.299937,-9.51182 -43.354259,-10.26861 -40.531043,-1.69902 0.910882,2.76472 -2.270654,5.5443 -7.071331,6.17719 -6.51161,0.85868 -7.425082,2.464 -3.59592,6.32001 2.822988,2.84284 10.814951,4.06243 17.760902,2.71071 6.94595,-1.35178 13.83896,-0.32238 15.317943,2.28817 1.478907,2.61054 -0.27491,5.067 -3.896423,5.4586 -3.621666,0.39158 -7.050994,2.66016 -7.621837,5.04054 -0.582651,2.43052 4.915928,3.56116 12.543326,2.57978 7.469718,-0.96145 20.363138,-0.12192 28.652864,1.86565 8.289878,1.98755 19.230592,1.47399 24.3129593,-1.14111 3.32877884,-1.71264 9.2128715,-3.29885 15.8833787,-4.55404 1.470299,0.60073 2.968478,0.69402 4.359177,0.0461 26.57569,-2.45601 53.072541,3.27519 79.620504,1.49668 21.170276,-0.94371 40.369476,-10.51758 60.906066,-14.58006 26.012,-6.13085 50.37676,-18.98799 77.04081,-22.07096 9.55969,2.38003 15.27308,11.86087 20.15618,19.82294 2.54526,-27.26828 -11.42327,-69.13709 -19.36321,-69.04407 z"
       id="path12971-2" />
    <path
       sodipodi:nodetypes="cscccsccssccccccccccccccc"
       inkscape:connector-curvature="0"
       id="path25809"
       d="m 126.14146,759.47224 c -1.43442,3.62725 -15.32373,15.17524 -27.024502,46.05039 -12.345046,32.575 -4.144139,73.97578 -4.144139,73.97578 -40.250039,4.18368 -52.934134,6.5838 -80.723419,36.66133 -23.0039945,23.463 -47.714352,76.72649 -70.100503,104.33566 -4.898485,3.6956 -9.638529,4.2502 -17.232258,4.6328 -13.702,0.69 -15.69683,2.7195 -19.435878,19.7651 -2.291526,10.4472 -6.815999,28.5854 -10.053601,40.3079 -3.23813,11.7225 -6.10438,24.0016 -6.37167,27.287 -0.26737,3.2856 0.37865,6.0138 1.43449,6.0628 2.15023,0.1 19.417066,-23.6349 38.96949,-53.5668 2.506487,-3.8373 8.044219,-10.4214 15.467853,-18.5691 1.353601,-1.3254 2.711545,-2.6474 4.025689,-4.0112 7.060668,-7.3505 14.283203,-14.546 21.37556,-21.8615 9.686137,-9.8933 20.7952702,-21.5104 32.5773952,-31.01966 4.0145682,-3.45433 8.0193858,-6.92149 12.0711268,-10.33385 7.472156,-6.24443 15.083253,-12.32484 22.729009,-18.35738 7.362695,-5.88489 14.902036,-11.54151 22.218951,-17.48338 3.892233,-3.15911 7.700219,-6.41919 11.67632,-9.47449 4.280261,-3.26718 8.732522,-6.31329 13.406142,-8.99329 4.255657,-2.4466 8.562731,-4.80038 12.791499,-7.28925 4.404345,-2.59391 9.025105,-4.86631 13.060625,-8.03622 3.77195,-2.9428 7.2495,-6.34594 9.89431,-10.35313 l 89.23161,-140.76422 z"
       style="stroke:#000000;stroke-width:0.13453011" />
    <path
       style="fill:#000000;fill-opacity:1"
       d="m 304.15861,280.43425 c -8.16526,-0.003 -63.00525,37.96138 -75.62871,78.11143 -12.62354,40.15005 16.96946,82.48571 23.95281,89.25438 11.48231,11.1288 20.45219,15.58621 30.77429,15.29271 14.52224,-0.4129 14.54182,-0.37878 6.20105,11.09276 -4.60201,6.32941 -11.30855,11.5768 -14.90295,11.65959 -10.54872,0.24304 -44.98132,20.70776 -56.68971,33.69335 -5.94099,6.5888 -19.33205,28.15146 -29.75669,47.91785 -19.95279,37.83296 -36.47557,56.09232 -72.91526,80.57125 -41.173493,27.65928 -52.206376,74.03524 -32.663779,137.30707 23.381439,1.49407 22.149859,15.83273 28.785409,36.15221 10.1367,-6.64187 6.38051,-19.10628 9.77739,-13.74503 2.26372,3.57243 4.14155,8.11336 4.18954,10.09001 0.0404,1.97665 2.76829,3.63166 6.06264,3.67477 l 112.69943,-10.72676 c -10.86561,-25.60607 -21.99851,-51.08408 -30.21199,-68.7733 -9.28714,-20.00142 -10.79141,-29.13603 -8.48168,-51.51228 1.70827,-16.5508 7.22406,-23.95339 8.60966,-27.20076 l 12.02405,-28.17971 c 2.58769,-6.06455 35.62837,-29.32231 45.96442,-29.32231 5.23128,0 17.7382,-4.1953 27.79438,-9.32231 l 18.2846,-9.32083 35.19753,26.49109 c 19.79374,14.89785 38.97276,25.79228 43.82501,24.89473 3.93405,-0.72771 11.6799,-11.41415 22.65565,-31.13292 0.31734,-0.57013 3.06964,-5.67343 3.79824,-7.16655 0.7286,-1.49312 3.91752,-7.19097 7.08619,-12.66234 5.5049,-9.50591 8.52563,-15.12433 21.34646,-39.69499 3.13187,-6.00188 7.12031,-13.42088 8.86407,-16.48738 3.13347,-5.51037 3.20713,-5.59441 6.30213,-7.16357 5.2239,-2.64854 7.82911,-3.24171 17.11373,-3.89794 4.90039,-0.34636 11.08903,-0.87878 13.75289,-1.18426 2.66393,-0.30543 9.15696,-0.52425 14.42831,-0.48501 17.1909,0.12791 31.59138,-3.29433 30.72527,-7.30193 -0.42534,-1.96808 -2.96056,-2.95043 -5.85435,-2.26736 -1.49162,0.35216 -2.99642,0.85202 -3.34301,1.10987 -0.34659,0.25777 -3.99081,0.45764 -8.09785,0.44485 -7.71918,-0.0242 -15.97402,-1.86748 -16.86678,-1.46991 -0.66956,0.29825 -10.54979,-0.95063 -14.71099,-1.47906 2.19387,-0.76194 11.26628,-1.51129 11.98688,-1.9428 1.59096,-0.95256 1.28733,-2.82632 -0.79449,-4.90813 -1.00808,-1.00811 -2.46817,-1.27955 -6.37503,-1.18723 -2.78734,0.0658 -6.128,0.46159 -7.42394,0.87927 -3.15921,1.01826 -5.44038,0.94082 -9.65407,-0.32582 -4.32482,-1.30013 -11.57348,-1.84572 -14.04897,-1.0578 -7.68643,2.44648 -17.50587,10.20715 -21.86413,17.28036 -3.58678,5.82128 -7.45624,11.35145 -11.4558,16.37134 -1.97038,2.47305 -6.44084,8.35232 -9.93522,13.06404 -8.69756,11.72758 -12.37095,15.93156 -19.35879,22.15724 0,0 -10.25043,10.54572 -11.62833,12.55969 -7.12519,10.41446 -7.48587,10.21896 -41.47887,-22.47414 -42.39836,-40.77753 -45.34521,-48.3242 -26.30954,-67.35993 12.0683,-12.06812 18.1052,-14.34054 38.08816,-14.34054 22.30419,0 24.12884,-0.94622 30.04539,-15.57389 3.46452,-8.56542 8.43864,-17.02507 11.05406,-18.80085 3.05813,-2.07617 2.73104,-5.67106 -0.91942,-10.06918 -8.46241,-10.19675 -8.11041,-26.96285 1.14558,-54.44466 8.05846,-23.92627 8.01527,-25.15282 -1.53391,-43.87113 -12.50387,-24.5093 -28.77169,-41.67549 -59.19033,-50.70883 -14.85915,-4.41267 -27.73909,-2.50368 -40.44063,-2.50842 z"
       id="path25132"
       inkscape:connector-curvature="0"
       sodipodi:nodetypes="sscssscssccccccsssssccssssccssscssccccccccccsssscsssssccscss" />
    <path
       style="fill:#de8787;fill-opacity:1;fill-rule:evenodd"
       d="m 274.22337,484.17287 c -4.21323,0.32897 -8.16899,0.9281 -7.75423,6.11322 -5.33138,20.59248 -10.44452,42.01654 -20.02828,61.05032 -6.66997,9.38723 -14.39594,18.06928 -21.88813,26.83155 -9.66884,10.05599 -19.68771,22.21058 -34.29526,24.52344 -12.4721,2.28372 -27.42708,1.72342 -36.59752,12.07152 -13.25395,13.72999 -28.912,25.23987 -44.97393,35.39066 -27.759124,8.94844 -47.9495,31.73988 -64.828161,54.41525 -11.204273,18.90763 -26.678143,36.44614 -47.9339577,43.86782 -16.5851643,6.21096 -34.5637703,7.12679 -52.0953903,6.48218 13.417264,8.70987 24.481761,20.37778 35.584342,31.69826 13.9781295,9.66443 31.86007,9.00984 48.050275,7.74827 8.597619,12.78353 24.306865,18.13954 38.753232,20.96554 7.124196,1.04421 14.350541,-0.16598 21.248197,-1.97426 6.250944,10.74273 18.974573,14.27788 30.130553,17.43194 14.44233,3.45712 29.43791,6.36947 44.33042,4.82201 2.18831,-0.38265 4.03178,-1.78019 5.86185,0.11455 11.0859,5.27987 23.98,4.69421 35.27927,0.41955 8.28843,-3.23364 16.86197,-5.89257 24.92006,-9.63177 6.74614,-4.16475 12.41253,-9.8293 17.78916,-15.5977 -11.18942,-26.83754 -23.29178,-53.29248 -35.00261,-79.88688 -6.88166,-16.33522 -5.62198,-34.92201 -1.93236,-51.85921 2.62364,-9.92154 8.52997,-18.34186 11.84641,-28.06289 3.79618,-7.34151 4.9886,-16.64903 12.34764,-21.54727 11.08514,-8.80843 22.86559,-17.50774 36.4112,-22.05655 18.07276,-1.44955 33.94425,-11.7519 49.89207,-19.51498 2.1532,-13.72568 -5.56888,-27.67177 -16.95818,-35.10581 -8.57896,-6.45984 -18.96178,-12.74142 -21.67157,-23.93753 -5.06949,-14.50608 -4.55083,-29.97876 -4.77569,-45.08664 -0.56978,0.10514 -1.13963,0.21027 -1.70941,0.31541 z"
       id="path2670"
       inkscape:connector-curvature="0" />
    <path
       inkscape:connector-curvature="0"
       id="path26337"
       d="m 398.13385,344.4592 c -5.6325,6.01921 -19.83587,14.05392 -20.34928,14.05392 -0.51333,0 0.21093,-1.63369 1.60947,-3.63042 2.98044,-4.2551 3.31255,-13.83202 0.70582,-20.357 -1.83547,-4.5948 -1.83844,-4.59201 -3.79077,3.56898 -1.0745,4.49206 -3.18824,10.51983 -4.69693,13.39505 -3.5902,6.84199 -7.29574,10.91664 -8.92577,12.34886 -4.11832,3.6183 -16.10573,9.37826 -19.47953,9.35985 -1.60794,-0.008 0.75176,-1.72948 5.24378,-3.82376 10.07744,-4.6983 15.1835,-12.50911 15.77285,-12.50412 1.41096,0.0114 6.27905,-14.35802 6.27905,-18.53484 0,-3.2084 -0.0587,-3.20567 -3.67529,0.16952 -2.02141,1.88661 -10.97141,6.81002 -19.88888,10.94088 -23.23419,10.76287 -29.23917,16.13951 -32.82648,29.39191 -4.71057,17.40262 -1.85917,33.47526 7.98594,45.01413 l 3.48418,4.08369 -4.40961,-3.88259 c -6.13462,-5.4015 -10.7825,-16.07833 -12.30231,-28.26024 l -1.28847,-10.32753 c 0,0 -14.18334,12.3672 -17.96459,20.67798 -4.50566,9.90299 -4.82795,21.45084 -4.51206,32.32606 0.23164,7.97325 0.63308,15.45783 4.67827,23.46809 1.62805,1.48129 5.81706,1.1793 5.37182,2.8803 -0.8862,3.38596 -1.35459,3.7487 -2.39931,5.42886 -1.27643,2.05274 -1.22867,3.65073 -4.65191,5.56295 -3.47282,-1.30097 -20.90968,-10.84604 -28.00866,-17.86256 -10.29598,-10.17624 -20.38668,-21.04174 -26.08673,-33.28747 -3.41951,-7.34628 -10.46113,-36.52935 -10.02648,-44.17515 2.2267,-39.1732 26.1923,-76.54231 59.94643,-93.47433 31.43936,-15.77088 60.88466,-12.67087 85.49949,9.00139 14.76172,12.99697 19.88629,15.73273 28.17769,25.86075 0,0 6.69222,7.7726 6.56707,12.46825 -0.10467,3.92647 -3.35499,7.25058 -6.0388,10.11859 z m -121.25698,85.62053 c -0.52141,-1.30309 -0.9086,-0.91602 -0.98698,0.98688 -0.0701,1.72196 0.31528,2.68672 0.85809,2.14394 0.54282,-0.54279 0.60078,-1.95166 0.12904,-3.13082 z m -1.81354,-18.91654 c -0.11106,-14.8576 0.25046,-16.70685 5.24972,-26.86635 7.4148,-15.06816 16.43389,-22.54313 42.00203,-34.81097 25.28943,-12.13417 33.41774,-19.28046 34.61481,-30.43305 0.52011,-4.84554 -0.0328,-8.12915 -1.7462,-10.36071 -2.32329,-3.02695 -2.37837,-2.83551 -0.74848,2.60594 3.66295,12.22873 -4.6056,21.10056 -29.3478,31.48958 -17.42528,7.31672 -27.54187,13.86988 -36.96635,23.94538 -9.53349,10.19194 -14.13794,20.64018 -15.2062,34.50525 -0.71252,9.24611 0.47045,25.8808 1.84028,25.8808 0.23507,0 0.3737,-7.18015 0.30819,-15.95587 z m -42.29034,-23.55381 c -0.52141,-1.30309 -0.90852,-0.91602 -0.9869,0.98688 -0.0701,1.72196 0.3152,2.68672 0.85801,2.14393 0.54281,-0.54279 0.60086,-1.95165 0.12904,-3.13081 z m 9.81197,-47.43925 c 6.89179,-13.11527 21.62556,-27.62957 36.74736,-36.20005 12.62719,-7.15665 11.12216,-7.82426 -1.94158,-0.86133 -25.1348,13.39666 -42.27306,37.44941 -44.7151,62.75499 l -0.94577,9.80085 2.51966,-12.21354 c 1.38583,-6.71744 5.13676,-17.19386 8.33543,-23.28092 z M 368.2696,296.6811 c -7.12458,-7.87254 -31.62736,-16.75349 -45.13779,-16.36002 -4.18184,0.12186 -2.64672,0.76722 5.71712,2.40348 6.66556,1.30404 17.22502,5.20515 25.31891,9.35392 15.91331,8.15684 17.9073,8.80765 14.10176,4.60262 z m -73.7352,-0.22135 c 0.57237,-0.92595 -0.0833,-1.1998 -1.5371,-0.64197 -2.82984,1.08592 -3.34752,2.25675 -0.99787,2.25675 0.84529,0 1.98607,-0.72666 2.53497,-1.61478 z"
       style="fill:#de8787"
       sodipodi:nodetypes="ascccsccscscssscsscaacsacssssssaaccscccssscssscscccsccsssscssscsssccsc" />
  </g>
</svg>
