<?xml version="1.0"?>
<svg xmlns:rdf="http://www.w3.org/1999/02/22-rdf-syntax-ns#" xmlns="http://www.w3.org/2000/svg" xmlns:cc="http://creativecommons.org/ns#" xmlns:xlink="http://www.w3.org/1999/xlink" xmlns:dc="http://purl.org/dc/elements/1.1/" xmlns:svg="http://www.w3.org/2000/svg" id="svg4189" viewBox="0 0 390 250" version="1.0">
  <defs id="defs3">
    <linearGradient id="linearGradient5403">
      <stop id="stop5405" stop-color="#ff97be" offset="0"/>
      <stop id="stop5407" stop-color="#aa292e" offset="1"/>
    </linearGradient>
    <linearGradient id="linearGradient5112">
      <stop id="stop5114" stop-color="#ff97be" offset="0"/>
      <stop id="stop5116" stop-color="#aa2959" offset="1"/>
    </linearGradient>
    <radialGradient id="radialGradient5253" xlink:href="#linearGradient5112" gradientUnits="userSpaceOnUse" cy="135.62" cx="142.81" gradientTransform="matrix(.76539 0 0 .53396 -28.024 169.56)" r="44.045"/>
    <radialGradient id="radialGradient5256" xlink:href="#linearGradient5112" gradientUnits="userSpaceOnUse" cy="135.62" cx="142.81" gradientTransform="matrix(.99093 0 0 .69130 -38.903 121.37)" r="44.045"/>
    <radialGradient id="radialGradient5259" xlink:href="#linearGradient5112" gradientUnits="userSpaceOnUse" cy="135.62" cx="142.81" gradientTransform="matrix(.49153 0 0 .34290 26.909 137.88)" r="44.045"/>
    <radialGradient id="radialGradient5262" xlink:href="#linearGradient5112" gradientUnits="userSpaceOnUse" cy="135.62" cx="142.81" gradientTransform="matrix(.64370 0 0 .44906 -45.426 161.67)" r="44.045"/>
    <radialGradient id="radialGradient5401" xlink:href="#linearGradient5403" gradientUnits="userSpaceOnUse" cy="135.62" cx="142.81" gradientTransform="matrix(.26403 .081150 -.056612 .18419 88.491 17.148)" r="44.045"/>
    <radialGradient id="radialGradient5411" xlink:href="#linearGradient5403" gradientUnits="userSpaceOnUse" cy="135.62" cx="142.81" gradientTransform="matrix(.20350 -.053733 .037485 .14196 302.4 128.2)" r="44.045"/>
    <radialGradient id="radialGradient5415" xlink:href="#linearGradient5403" gradientUnits="userSpaceOnUse" cy="135.62" cx="142.81" gradientTransform="matrix(.21963 .067504 -.047093 .15322 324.68 1.5688)" r="44.045"/>
  </defs>
  <g id="layer1" transform="translate(-11.718 -19.674)">
    <path id="path4936" d="m261.16 39.281c-82.45-0.059-159.42 57.89-184.6 135.69-5.2821 15.449-8.5217 31.499-9.5938 47.812l9.159 0.6c1.0184-15.498 4.1016-30.839 9.125-45.531v-0.03125l0.03125-0.03125c23.899-73.85 97.809-129.41 175.94-129.35h0.03125c11.383-0.13148 22.789 0.66941 33.875 2.6562h0.09375c41.409 6.7325 79.091 29.025 107.03 60.125v-13.344c-28.4-28.753-65.17-49.247-105.55-55.814-11.73-2.102-23.64-2.918-35.53-2.781z" fill="#50e7ff"/>
    <path id="path4950" d="m263.72 51.625c-1.418 0.023002-2.8281 0.064181-4.25 0.125-87.17 0.69-166.87 71.16-178.41 157.63l9.0625 1.2188c10.888-81.59 87.318-149.04 169.57-149.69h0.15625c42.903-1.8351 84.344 14.735 116.5 42.438 9.5178 8.1995 18.228 17.37 25.906 27.312v-14.406c-6.17-7.08-12.84-13.72-19.95-19.844-32.68-28.153-74.63-45.494-118.59-44.781z" fill="#ffa350"/>
    <path id="path4964" d="m265.88 63.938c-2.4931-0.008183-4.9939 0.039645-7.5 0.15625-75.88 1.892-145.27 59.146-162.41 132.91l8.9062 2.0625c16.13-69.43 82.42-124.03 153.81-125.81h0.09375c37.651-1.7519 74.22 11.684 103.53 34.75 14.656 11.533 27.502 25.455 37.719 41.031 0.84315 2.4831 1.5709 4.4115 2.2188 5.9062v-18.719c-9.76-13.27-21.35-25.23-34.28-35.41-28.93-22.764-64.7-36.75-102.09-36.872z" fill="#b350ff"/>
    <path id="path4978" d="m265.5 76.438c-1.0476-0.000674-2.1062 0.008173-3.1562 0.03125-65.99 0.175-127.81 45.881-149.53 107.53l8.625 3.0625c20.36-57.81 79.28-101.3 141.03-101.47h0.09375c59.754-1.3132 116.38 39.444 139.69 93.938v-20.469c-3.5342-6.1506-7.4844-12.064-11.781-17.719-10.021-13.188-21.992-24.924-35.375-34.656-25.93-18.848-57.11-30.222-89.59-30.242z" fill="#ff5062"/>
    <path id="path4932" d="m263.84 26.688c-114.07-0.243-209.54 94.792-209.78 208.87l9.1562 0.03125c0.23195-108.98 91.616-199.98 200.59-199.75 53.294 0.11343 102.3 22.002 138.44 57.125v-12.47c-37.05-33.21-85.69-53.7-138.41-53.812z" fill="#83ff50"/>
    <path id="path5264" d="m104.73 166.33c-3.4475-0.32152-6.7012 2.1266-9.5974 2.5701-8.8275-5.5817-24.187-1.1318-24.433 10.573-0.50614 2.4378 2.3351 5.4594-1.5616 5.4656-6.9511 2.3348-11.861 8.9614-14.217 15.291-3.8342-0.05-7.4467 2.9505-10.508 3.5462-9.9227-6.6636-27.346-3.685-30.354 9.1094-2.5498 13.389 9.8413 23.499 20.756 28.304 3.749 1.7302 7.2259 5.3409 11.68 4.7499 7.4309 12.188 21.684 17.151 33.607 23.847 12.842-7.6808 30.487-11.958 36.21-27.491 4.551-3.7223 10.528-4.8776 15.128-8.5888 11.203-6.7085 19.41-19.98 15.909-33.314-2.7002-11.546-15.034-18.609-26.45-17.991 2.153-9.4226-7.2726-16.965-16.169-16.072z" fill="#f9f9f9"/>
    <path id="path5164" stroke="#b12861" stroke-width="1.8543" fill="url(#radialGradient5262)" d="m19.096 214.19c-1.4599 14.195 15.442 21.067 27.332 27.302 13.061-7.18 29.768-11.86 27.319-27.3-2.161-13.62-23.384-12.78-27.332-4.59-5.996-8.37-26.043-7.72-27.319 4.59z"/>
    <path id="path5166" stroke="#b12861" stroke-width="1.8543" fill="url(#radialGradient5259)" d="m76.178 177.99c-1.1148 10.84 11.792 16.087 20.871 20.848 9.9739-5.4797 22.731-9.0578 20.861-20.848-1.6497-10.403-17.856-9.7549-20.871-3.5015-4.5785-6.3925-19.887-5.8979-20.861 3.5015z"/>
    <path id="path5168" stroke="#b12861" stroke-width="1.8543" fill="url(#radialGradient5256)" d="m60.423 202.21c-2.2475 21.853 23.772 32.431 42.075 42.03 20.107-11.047 45.826-18.261 42.057-42.03-3.3258-20.972-35.998-19.666-42.075-7.059-9.2302-12.887-40.092-11.89-42.057 7.059z"/>
    <path id="path5170" stroke="#b12861" stroke-width="1.8543" fill="url(#radialGradient5253)" d="m48.696 232c-1.7359 16.879 18.362 25.05 32.499 32.464 15.531-8.5328 35.396-14.104 32.485-32.464-2.5688-16.198-27.805-15.19-32.499-5.4524-7.1294-9.9542-30.967-9.1839-32.485 5.4524z"/>
    <path id="path5399" stroke="#b12861" stroke-width=".6692" fill="url(#radialGradient5401)" d="m108.34 46.823c-2.3884 5.6386 3.6782 10.588 7.7689 14.644 6.2622-1.2968 13.706-1.1126 14.648-7.7546 0.83127-5.8602-7.9812-8.1879-10.633-5.3265-1.404-4.1897-9.7087-6.4513-11.784-1.5633z"/>
    <path id="path5409" stroke="#b12861" stroke-width=".50991" fill="url(#radialGradient5411)" d="m327.18 139.41c0.72343 4.6095 6.6404 5.371 10.92 6.3497 3.5302-3.3589 8.4206-6.2349 6.3577-10.912-1.8202-4.1263-8.459-2.0866-9.0233 0.83188-2.5943-2.146-8.878-0.26776-8.254 3.7301z"/>
    <path id="path5413" stroke="#b12861" stroke-width=".55668" fill="url(#radialGradient5415)" d="m341.18 26.255c-1.9868 4.6904 3.0597 8.8076 6.4626 12.182 5.2092-1.0788 11.401-0.92556 12.185-6.4507 0.6915-4.8748-6.6392-6.8111-8.8448-4.4309-1.1679-3.4852-8.0762-5.3665-9.8025-1.3004z"/>
  </g>
  <metadata>
    <rdf:RDF>
      <cc:Work>
        <dc:format>image/svg+xml</dc:format>
        <dc:type rdf:resource="http://purl.org/dc/dcmitype/StillImage"/>
        <cc:license rdf:resource="http://creativecommons.org/licenses/publicdomain/"/>
        <dc:publisher>
          <cc:Agent rdf:about="http://openclipart.org/">
            <dc:title>Openclipart</dc:title>
          </cc:Agent>
        </dc:publisher>
        <dc:title>Valentine Rainbow</dc:title>
        <dc:date>2009-01-26T16:47:24</dc:date>
        <dc:description>Valentine Rainbow with pink love hearts</dc:description>
        <dc:source>http://openclipart.org/detail/21269/valentine-rainbow-by-pixabella-21269</dc:source>
        <dc:creator>
          <cc:Agent>
            <dc:title>pixabella</dc:title>
          </cc:Agent>
        </dc:creator>
        <dc:subject>
          <rdf:Bag>
            <rdf:li>cartoon</rdf:li>
            <rdf:li>clip art</rdf:li>
            <rdf:li>clipart</rdf:li>
            <rdf:li>color</rdf:li>
            <rdf:li>heart</rdf:li>
            <rdf:li>image</rdf:li>
            <rdf:li>media</rdf:li>
            <rdf:li>png</rdf:li>
            <rdf:li>public domain</rdf:li>
            <rdf:li>rainbow</rdf:li>
            <rdf:li>svg</rdf:li>
            <rdf:li>valentine</rdf:li>
            <rdf:li>valentine heart</rdf:li>
            <rdf:li>valentines day</rdf:li>
          </rdf:Bag>
        </dc:subject>
      </cc:Work>
      <cc:License rdf:about="http://creativecommons.org/licenses/publicdomain/">
        <cc:permits rdf:resource="http://creativecommons.org/ns#Reproduction"/>
        <cc:permits rdf:resource="http://creativecommons.org/ns#Distribution"/>
        <cc:permits rdf:resource="http://creativecommons.org/ns#DerivativeWorks"/>
      </cc:License>
    </rdf:RDF>
  </metadata>
</svg>
